<?xml version="1.0" encoding="utf-8"?>
<!-- Generator: Adobe Illustrator 19.2.0, SVG Export Plug-In . SVG Version: 6.00 Build 0)  -->
<svg version="1.1" id="Layer_1" xmlns="http://www.w3.org/2000/svg" xmlns:xlink="http://www.w3.org/1999/xlink" x="0px" y="0px"
	 width="64px" height="64px" viewBox="0 0 18 18" style="enable-background:new 0 0 18 18;" xml:space="preserve">

<g>
	<path d="M10.9,9.5c-0.3,0.2-0.5,0.3-0.7,0.3c-0.1,0-0.3-0.3-0.3-0.3c0.1-0.2,0.3-0.3,0.4-0.4C10.5,9.1,10.6,9.3,10.9,9.5z"/>
</g>
<g>
	<path d="M7,9.5c0.3,0.2,0.5,0.3,0.7,0.3c0.1,0,0.3-0.3,0.3-0.3C7.8,9.3,7.7,9.1,7.5,9.1C7.4,9.1,7.2,9.3,7,9.5z"/>
</g>
<g>
	<path d="M5.6,15c-0.4,0.2-0.4-0.1-0.4-0.3c-0.1-0.6,0.2-1.1,0.7-1.2c0.6-0.1,1,0.3,1.2,1.3c-0.2-0.1-0.3-0.2-0.4-0.3c0,0,0,0,0,0
		c-0.1-0.3-0.3-0.7-0.7-0.6c-0.4,0.1-0.4,0.5-0.4,0.9C5.5,14.9,5.5,14.9,5.6,15z"/>
</g>
<g>
	<path d="M6.1,14.4c0.1,0.1,0.2,0.2,0.2,0.2c0,0.1-0.1,0.1-0.2,0.2c0-0.1-0.1-0.1-0.1-0.2C5.9,14.6,6,14.5,6.1,14.4z"/>
</g>
<g>
	<path d="M11.7,14.4c0.1,0.1,0.2,0.2,0.2,0.2c0,0.1-0.1,0.1-0.2,0.2c0-0.1-0.1-0.1-0.1-0.2C11.5,14.6,11.6,14.5,11.7,14.4z"/>
</g>
<g>
	<path d="M12.2,15c0.4,0.2,0.4-0.1,0.4-0.3c0.1-0.6-0.2-1.1-0.7-1.2c-0.6-0.1-1,0.3-1.2,1.3c0.2-0.1,0.3-0.2,0.4-0.3c0,0,0,0,0,0
		c0.1-0.3,0.3-0.7,0.7-0.6c0.4,0.1,0.4,0.5,0.4,0.9C12.3,14.9,12.2,14.9,12.2,15z"/>
</g>
<g>
	<g>
		<path d="M9,1c4.4,0,8,3.6,8,8s-3.6,8-8,8s-8-3.6-8-8S4.6,1,9,1 M9,0C4,0,0,4,0,9s4,9,9,9s9-4,9-9S14,0,9,0L9,0z"/>
	</g>
</g>
<g>
	<path style="fill:none;" d="M14.6,7c0-0.1-0.1-0.2-0.3-0.4c-0.6,0-1.7,0.7-1.8,1.3c0,0.1,0.1,0.2,0.2,0.4C13.5,8.2,14.6,7.4,14.6,7
		z"/>
	<path style="fill:none;" d="M14.1,6.5l0.1,0.1C14.2,6.5,14.1,6.5,14.1,6.5z"/>
	<path style="fill:none;" d="M11.3,7.6c-0.8-0.5-1.6-0.7-2.4-0.7c-0.7,0-1.5,0.2-2.1,0.6C5.6,8.1,5,9.2,4.9,11
		c1.3-0.4,2.6-0.6,3.9-0.6c1.4,0,2.8,0.2,4.2,0.7C12.8,9.7,12.6,8.4,11.3,7.6z"/>
	<g>
		<g>
			<path d="M14.1,11.8c-0.1,0-0.1-0.2-0.2-0.3c-0.2-0.7-0.3-1.5-0.4-2.2l-0.1-0.5c0.6-0.1,1.1-0.5,1.5-1.1c0.2-0.3,0.1-0.9,0-1.2
				c-0.1-0.3-0.4-0.5-0.8-0.5c-0.2,0-0.3,0.1-0.5,0.2c-0.4,0.2-0.7,0.5-1.1,0.8l0,0c-0.1,0.1-0.2,0.2-0.3,0.2C11.4,6.3,10.4,6,9,6
				L9,6C7.7,6,6.6,6.3,5.8,6.9c-0.3-0.5-0.7-1-1.4-1c-0.1,0-0.3,0-0.4,0.1C3.6,6,3.2,6.5,3.2,6.9C3.1,7.7,3.5,8.3,4.5,8.7
				C4.4,8.9,4.4,9,4.3,9.2c-0.2,0.5-0.3,1-0.4,1.6c-0.1,0.6-0.3,1-0.9,1.3c-0.1,0.1-1.7,1.3-1.8,1.4c0.1,0.2,0.2,0.5,0.4,0.7
				c0.3-0.2,2.2-1.6,2.6-1.9c1.3-0.7,2.9-1,4.5-1c0.6,0,1.1,0,1.7,0.1c1.9,0.2,4.8,1.9,5.7,2.9c0.2-0.2,0.3-0.5,0.5-0.7
				C16.4,13.3,14.4,12,14.1,11.8z M14.3,6.6C14.5,6.7,14.6,7,14.6,7c0,0.3-1.2,1.6-1.9,1.3c-0.2-0.1-0.2-0.3-0.2-0.4
				C12.6,7.4,13.8,6.4,14.3,6.6z M3.6,6.8c0-0.1,0.1-0.2,0.2-0.3c0,0,0.1-0.1,0.1-0.1c0.5-0.3,1.9,0.9,1.7,1.4
				c0,0.1-0.2,0.3-0.3,0.3C4.6,8.3,3.6,7.2,3.6,6.8z M8.8,10.4c-1.3,0-2.6,0.2-3.9,0.6C5,9.2,5.6,8.1,6.7,7.5
				c0.7-0.4,1.4-0.6,2.1-0.6c0.8,0,1.6,0.2,2.4,0.7c1.3,0.8,1.5,2.1,1.8,3.6C11.6,10.7,10.2,10.4,8.8,10.4z"/>
		</g>
	</g>
	<g>
		<path style="fill:#FFFFFF;" d="M3.6,6.8c0,0.4,0.9,1.2,1.7,1.3l0.3-0.3C5.5,7.3,4.4,6.4,3.8,6.5"/>
	</g>
</g>
</svg>