<svg xmlns="http://www.w3.org/2000/svg" viewBox="0 0 7.44 10.42" width="30" height="30"><defs><style>.cls-1{fill:#fff;}</style></defs><title>lock icon</title><g id="Layer_2" data-name="Layer 2"><g id="Layer_1-2" data-name="Layer 1"><path class="cls-1" d="M7.14,4.18H6.63V2.91a2.91,2.91,0,0,0-5.81,0V4.18H.3a.3.3,0,0,0-.3.3v5.64a.3.3,0,0,0,.3.3H7.14a.3.3,0,0,0,.3-.3V4.48a.3.3,0,0,0-.3-.3Zm-3,3.43v1.2A.19.19,0,0,1,4,9H3.44a.19.19,0,0,1-.19-.19V7.61a.81.81,0,1,1,.94,0Zm1-3.43h-3V2.91a1.52,1.52,0,1,1,3,0Zm0,0"/></g></g></svg>